<svg width="55" height="36" viewBox="0 0 55 36" fill="none" xmlns="http://www.w3.org/2000/svg">
<path d="M23.3391 34.1992H46.1654C46.3179 34.1992 46.4754 34.1992 46.6241 34.2154V34.1992C50.3516 34.1992 53.3854 31.1668 53.3854 27.438C53.3854 23.7093 50.3516 20.6767 46.6241 20.6767C46.0941 20.6767 45.5466 20.7455 44.9929 20.8817C44.8129 20.9267 44.6204 20.8943 44.4654 20.7906C44.3104 20.6868 44.2054 20.5256 44.1766 20.3418C43.4216 15.5281 39.3391 12.0368 34.4691 12.0368C29.0429 12.0368 24.6291 16.4506 24.6291 21.8768C24.6291 22.1443 24.6479 22.4068 24.6691 22.6681C24.6854 22.8656 24.6129 23.0593 24.4716 23.1968C24.3291 23.3368 24.1329 23.4031 23.9379 23.3818C23.7404 23.3618 23.5416 23.3481 23.3391 23.3481C20.3479 23.3481 17.9141 25.7819 17.9141 28.7731C17.9141 31.7656 20.3479 34.1994 23.3391 34.1994V34.1992ZM23.3029 22.0206C23.3019 21.9731 23.3019 21.9244 23.3019 21.8769C23.3019 15.7181 28.3119 10.7093 34.4694 10.7093C39.7644 10.7093 44.2394 14.3456 45.3607 19.4531C45.7869 19.3831 46.2094 19.3493 46.6244 19.3493C51.0844 19.3493 54.7132 22.9781 54.7132 27.4381C54.7132 31.8981 51.0844 35.5268 46.6207 35.5268H40.5869H23.3394C19.6157 35.5268 16.5869 32.4981 16.5869 28.7731C16.5869 25.0631 19.5957 22.0406 23.3032 22.0206" fill="#357491"/>
<path d="M13.052 32.0115C8.89645 31.0349 5.29441 28.4745 3.04657 24.8454C-1.6298 17.2956 0.71691 7.34716 8.26632 2.67071C15.8161 -2.00565 25.7408 0.318712 30.4171 7.8684C31.0882 8.95177 29.5694 9.44426 29.1044 8.6936C24.8736 1.86314 15.8996 -0.223674 9.06918 4.0072C2.23869 8.23803 0.150447 17.1658 4.38155 23.9963C6.41108 27.2729 9.64544 29.6191 13.3974 30.5009C14.3346 30.7212 14.16 32.2719 13.0517 32.0114L13.052 32.0115Z" fill="#357491"/>
</svg>
