<svg width="47" height="47" viewBox="0 0 47 47" fill="none" xmlns="http://www.w3.org/2000/svg">
<path d="M15.8772 27.1913H38.0422C38.1897 27.1913 38.3435 27.1913 38.4872 27.2063V27.1913C42.1072 27.1913 45.0535 24.2463 45.0535 20.6263C45.0535 17.005 42.1072 14.06 38.4872 14.06C37.9735 14.06 37.4397 14.1275 36.9034 14.26C36.7284 14.3037 36.5422 14.2713 36.391 14.1712C36.241 14.0712 36.1385 13.9125 36.111 13.735C35.3785 9.0612 31.4122 5.66995 26.6847 5.66995C21.416 5.66995 17.1285 9.95623 17.1285 15.2262C17.1285 15.485 17.1485 15.7412 17.1698 15.9937C17.1835 16.1862 17.1135 16.3749 16.976 16.5087C16.8398 16.6424 16.6473 16.7075 16.4585 16.6875C16.2673 16.6675 16.0735 16.6549 15.8773 16.6549C12.9723 16.6549 10.6085 19.0187 10.6085 21.9225C10.6085 24.8275 12.9723 27.1912 15.8773 27.1912L15.8772 27.1913ZM15.8411 15.3662C15.8411 15.3187 15.8401 15.2725 15.8401 15.2262C15.8401 9.24623 20.7063 4.3812 26.6851 4.3812C31.8263 4.3812 36.1726 7.91247 37.2614 12.8725C37.6739 12.805 38.085 12.7699 38.4875 12.7699C42.8188 12.7699 46.3426 16.2949 46.3426 20.6262C46.3426 24.9574 42.8188 28.4812 38.4838 28.4812H32.6251H15.8776C12.2613 28.4812 9.32007 25.5387 9.32007 21.9225C9.32007 18.3187 12.2413 15.3849 15.8413 15.3662" fill="#357491"/>
<path d="M7.98178 8.42661C8.38553 8.42661 8.79554 8.46031 9.20804 8.52786C10.298 3.56911 14.643 0.0365906 19.7843 0.0365906C22.023 0.0365906 24.1718 0.71411 25.9993 1.99411C26.2893 2.19911 26.3605 2.60038 26.1568 2.89163C25.9518 3.18413 25.5505 3.25413 25.258 3.05038C23.6493 1.92163 21.7568 1.32535 19.7843 1.32535C15.0568 1.32535 11.0905 4.71785 10.358 9.39035C10.3292 9.57035 10.2268 9.72785 10.0768 9.82785C9.92803 9.92785 9.74302 9.96036 9.56552 9.91666C9.02802 9.78291 8.49678 9.71542 7.98178 9.71542C4.36178 9.71542 1.41553 12.6616 1.41553 16.2816C1.41553 19.6579 3.94554 22.4654 7.29929 22.8117C7.65304 22.8492 7.91055 23.1667 7.8743 23.5204C7.8393 23.8517 7.55928 24.0992 7.23303 24.0992C7.21183 24.0992 7.18804 24.0982 7.16684 24.0952C3.15309 23.6802 0.126831 20.3214 0.126831 16.2814C0.126831 11.9502 3.65059 8.42642 7.98184 8.42642" fill="#357491"/>
<path d="M15.4116 33.6431C15.0448 33.644 14.7487 33.94 14.7478 34.3069V35.3286H13.7261C13.3601 35.3286 13.0631 35.6257 13.0623 35.9925C13.0631 36.3593 13.3601 36.6562 13.7261 36.6562H14.7478L14.7469 37.6772C14.7469 38.0431 15.0439 38.34 15.4107 38.3409C15.5946 38.3409 15.7616 38.2658 15.881 38.1465C16.0012 38.0262 16.0754 37.8601 16.0745 37.6772L16.0754 36.6562L17.0963 36.6554C17.2802 36.6554 17.4454 36.5819 17.5656 36.4618C17.6858 36.3416 17.7601 36.1754 17.7601 35.9915C17.7592 35.6247 17.4622 35.3278 17.0963 35.3278L16.0754 35.3286V34.3069C16.0754 33.9409 15.7784 33.644 15.4116 33.6431Z" fill="#357491"/>
<path d="M27.4116 33.6431C27.0448 33.644 26.7487 33.94 26.7478 34.3069V35.3286H25.7261C25.3601 35.3286 25.0631 35.6257 25.0623 35.9925C25.0631 36.3593 25.3601 36.6562 25.7261 36.6562H26.7478L26.7469 37.6772C26.7469 38.0431 27.0439 38.34 27.4107 38.3409C27.5946 38.3409 27.7616 38.2658 27.881 38.1465C28.0012 38.0262 28.0754 37.8601 28.0745 37.6772L28.0754 36.6562L29.0963 36.6554C29.2802 36.6554 29.4454 36.5819 29.5656 36.4618C29.6858 36.3416 29.7601 36.1754 29.7601 35.9915C29.7592 35.6247 29.4622 35.3278 29.0963 35.3278L28.0754 35.3286V34.3069C28.0754 33.9409 27.7784 33.644 27.4116 33.6431Z" fill="#357491"/>
<path d="M39.4117 33.6431C39.0449 33.644 38.7488 33.94 38.7479 34.3069V35.3286H37.7261C37.3602 35.3286 37.0633 35.6257 37.0624 35.9925C37.0633 36.3593 37.3602 36.6562 37.7261 36.6562H38.7479L38.747 37.6772C38.747 38.0431 39.044 38.34 39.4108 38.3409C39.5947 38.3409 39.7617 38.2658 39.881 38.1465C40.0013 38.0262 40.0755 37.8601 40.0746 37.6772L40.0755 36.6562L41.0964 36.6554C41.2802 36.6554 41.4455 36.5819 41.5657 36.4618C41.6859 36.3416 41.7602 36.1754 41.7602 35.9915C41.7593 35.6247 41.4623 35.3278 41.0964 35.3278L40.0755 35.3286V34.3069C40.0755 33.9409 39.7786 33.644 39.4117 33.6431Z" fill="#357491"/>
<path d="M9.41162 41.6431C9.04481 41.644 8.74871 41.94 8.74783 42.3069V43.3286H7.72607C7.36014 43.3286 7.06314 43.6257 7.06226 43.9925C7.06314 44.3593 7.36014 44.6562 7.72607 44.6562H8.74783L8.74695 45.6772C8.74695 46.0431 9.04393 46.34 9.41074 46.3409C9.59459 46.3409 9.76163 46.2658 9.88095 46.1465C10.0012 46.0262 10.0754 45.8601 10.0745 45.6772L10.0754 44.6562L11.0963 44.6554C11.2802 44.6554 11.4454 44.5819 11.5656 44.4618C11.6858 44.3416 11.7601 44.1754 11.7601 43.9915C11.7592 43.6247 11.4622 43.3278 11.0963 43.3278L10.0754 43.3286V42.3069C10.0754 41.9409 9.77843 41.644 9.41162 41.6431Z" fill="#357491"/>
<path d="M21.4116 41.6431C21.0448 41.644 20.7487 41.94 20.7478 42.3069V43.3286H19.7261C19.3601 43.3286 19.0631 43.6257 19.0623 43.9925C19.0631 44.3593 19.3601 44.6562 19.7261 44.6562H20.7478L20.7469 45.6772C20.7469 46.0431 21.0439 46.34 21.4107 46.3409C21.5946 46.3409 21.7616 46.2658 21.881 46.1465C22.0012 46.0262 22.0754 45.8601 22.0745 45.6772L22.0754 44.6562L23.0963 44.6554C23.2802 44.6554 23.4454 44.5819 23.5656 44.4618C23.6858 44.3416 23.7601 44.1754 23.7601 43.9915C23.7592 43.6247 23.4622 43.3278 23.0963 43.3278L22.0754 43.3286V42.3069C22.0754 41.9409 21.7784 41.644 21.4116 41.6431Z" fill="#357491"/>
<path d="M33.4116 41.6431C33.0448 41.644 32.7487 41.94 32.7478 42.3069V43.3286H31.7261C31.3601 43.3286 31.0631 43.6257 31.0623 43.9925C31.0631 44.3593 31.3601 44.6562 31.7261 44.6562H32.7478L32.7469 45.6772C32.7469 46.0431 33.0439 46.34 33.4107 46.3409C33.5946 46.3409 33.7616 46.2658 33.881 46.1465C34.0012 46.0262 34.0754 45.8601 34.0745 45.6772L34.0754 44.6562L35.0963 44.6554C35.2802 44.6554 35.4454 44.5819 35.5656 44.4618C35.6858 44.3416 35.7601 44.1754 35.7601 43.9915C35.7592 43.6247 35.4622 43.3278 35.0963 43.3278L34.0754 43.3286V42.3069C34.0754 41.9409 33.7784 41.644 33.4116 41.6431Z" fill="#357491"/>
</svg>
