<svg width="47" height="43" viewBox="0 0 47 43" fill="none" xmlns="http://www.w3.org/2000/svg">
<path d="M13.0851 32.199C12.7664 32.0415 12.3801 32.169 12.2201 32.4865L7.87386 41.179C7.71511 41.4965 7.84387 41.884 8.16262 42.044C8.25512 42.0902 8.35387 42.1128 8.45012 42.1128C8.68762 42.1128 8.91511 41.9816 9.02761 41.7566L13.3739 33.0628C13.5326 32.7453 13.4039 32.3578 13.0851 32.1991" fill="#357491"/>
<path d="M20.3343 32.199C20.0155 32.0415 19.6292 32.169 19.4692 32.4865L15.123 41.179C14.9643 41.4965 15.093 41.884 15.4117 42.044C15.5042 42.0902 15.6017 42.1128 15.6992 42.1128C15.9355 42.1128 16.163 41.9816 16.2768 41.7566L20.6218 33.0628C20.7818 32.7453 20.6531 32.3578 20.3343 32.1991" fill="#357491"/>
<path d="M27.5828 32.199C27.2653 32.0415 26.8778 32.169 26.7178 32.4865L22.3715 41.179C22.2128 41.4965 22.3415 41.884 22.6603 42.044C22.7528 42.0902 22.8503 42.1128 22.9478 42.1128C23.184 42.1128 23.4128 41.9816 23.5253 41.7566L27.8715 33.0628C28.0303 32.7453 27.9015 32.3578 27.5828 32.1991" fill="#357491"/>
<path d="M34.8313 32.199C34.5125 32.0415 34.1263 32.169 33.9663 32.4865L29.62 41.179C29.46 41.4965 29.59 41.884 29.9088 42.044C30.0013 42.0902 30.0988 42.1128 30.1963 42.1128C30.4325 42.1128 30.66 41.9816 30.7738 41.7566L35.1188 33.0628C35.2788 32.7453 35.1501 32.3578 34.8313 32.1991" fill="#357491"/>
<path d="M42.0792 32.199C41.7605 32.0415 41.3743 32.169 41.2143 32.4865L36.868 41.179C36.7093 41.4965 36.838 41.884 37.1568 42.044C37.2493 42.0902 37.3467 42.1128 37.4442 42.1128C37.6805 42.1128 37.9092 41.9816 38.0217 41.7566L42.368 33.0628C42.5268 32.7453 42.398 32.3578 42.0792 32.1991" fill="#357491"/>
<path d="M15.7918 27.2942H37.968C38.1155 27.2942 38.2693 27.2943 38.413 27.3105V27.2942C42.0355 27.2942 44.9818 24.348 44.9818 20.7242C44.9818 17.103 42.0355 14.1555 38.413 14.1555C37.9005 14.1555 37.368 14.223 36.828 14.3555C36.653 14.4005 36.4681 14.368 36.3156 14.268C36.1656 14.168 36.0643 14.0092 36.0355 13.8305C35.3018 9.15547 31.3355 5.76175 26.6043 5.76175C21.3343 5.76175 17.0455 10.0505 17.0455 15.3217C17.0455 15.5817 17.063 15.8367 17.0843 16.0905C17.1005 16.2817 17.0305 16.4717 16.8918 16.6055C16.7543 16.7405 16.5631 16.8042 16.3718 16.7855C16.1818 16.7642 15.9881 16.7518 15.7918 16.7518C12.8856 16.7518 10.5218 19.1168 10.5218 22.023C10.5218 24.9293 12.8856 27.2943 15.7918 27.2943L15.7918 27.2942ZM15.7568 15.4618C15.7558 15.4156 15.7558 15.3693 15.7558 15.3218C15.7558 9.34056 20.6233 4.47177 26.6046 4.47177C31.7496 4.47177 36.0971 8.00555 37.1859 12.968C37.6009 12.8992 38.0108 12.8656 38.4133 12.8656C42.7458 12.8656 46.2721 16.3905 46.2721 20.7243C46.2721 25.058 42.7459 28.583 38.4096 28.583H32.5483H15.7921C12.1746 28.583 9.23083 25.6405 9.23083 22.023C9.23083 18.4168 12.1558 15.4805 15.7571 15.4618" fill="#357491"/>
<path d="M7.89258 8.51987C8.29508 8.51987 8.70509 8.55357 9.11884 8.62112C10.2088 3.65862 14.5564 0.126129 19.7001 0.126129C21.9414 0.126129 24.0901 0.802369 25.9176 2.08487C26.2101 2.28862 26.2801 2.68986 26.0764 2.98111C25.8714 3.27361 25.4701 3.34361 25.1776 3.13986C23.5688 2.01236 21.6739 1.41489 19.7001 1.41489C14.9701 1.41489 11.0026 4.80861 10.2688 9.48361C10.2413 9.66236 10.1401 9.82111 9.98883 9.92111C9.83883 10.0211 9.65385 10.0524 9.4776 10.0099C8.93885 9.87742 8.40633 9.80991 7.89258 9.80991C4.27008 9.80991 1.32385 12.7574 1.32385 16.3787C1.32385 19.7574 3.85383 22.5662 7.20883 22.9124C7.56383 22.9486 7.82135 23.2662 7.7851 23.6199C7.7501 23.9524 7.47008 24.1987 7.14383 24.1987C7.12133 24.1987 7.09886 24.1977 7.07635 24.1967C3.06136 23.7817 0.0325928 20.4217 0.0325928 16.3792C0.0325928 12.0454 3.55883 8.52042 7.89258 8.52042" fill="#357491"/>
</svg>
