<svg width="47" height="43" viewBox="0 0 47 43" fill="none" xmlns="http://www.w3.org/2000/svg">
<path d="M23.2552 37.5185C22.9815 37.3797 22.6477 37.4922 22.5102 37.766L20.524 41.7135C20.3878 41.9885 20.4965 42.3222 20.7703 42.4585C20.8528 42.4985 20.9378 42.5185 21.0215 42.5185C21.2228 42.5185 21.419 42.4073 21.5178 42.2123L23.5015 38.2635C23.639 37.991 23.5303 37.656 23.2552 37.5185Z" fill="#357491"/>
<path d="M30.3306 37.5185C30.0543 37.3797 29.7231 37.4922 29.5831 37.766L27.5994 41.7135C27.4606 41.9885 27.5719 42.3222 27.8494 42.4585C27.9282 42.4985 28.0119 42.5185 28.0969 42.5185C28.2981 42.5185 28.4943 42.4073 28.5906 42.2123L30.5768 38.2635C30.7143 37.991 30.6031 37.656 30.3306 37.5185Z" fill="#357491"/>
<path d="M37.4057 37.5185C37.1269 37.3797 36.7957 37.4922 36.6582 37.766L34.6744 41.7135C34.5357 41.9885 34.6469 42.3222 34.9206 42.4585C34.9981 42.4985 35.0869 42.5185 35.1694 42.5185C35.3731 42.5185 35.5694 42.4073 35.6656 42.2123L37.6519 38.2635C37.7894 37.991 37.6782 37.656 37.4057 37.5185Z" fill="#357491"/>
<path d="M20.2236 33.6654L39.3261 33.6644C39.4524 33.6644 39.5836 33.6643 39.7086 33.6768V33.6657C42.8274 33.6657 45.3661 31.1269 45.3661 28.0069C45.3661 24.8882 42.8274 22.3494 39.7086 22.3494C39.2661 22.3494 38.8086 22.4082 38.3436 22.5219C38.1936 22.5581 38.0324 22.5319 37.9036 22.4444C37.7711 22.3607 37.6861 22.2219 37.6599 22.0694C37.0286 18.0419 33.6136 15.1207 29.5374 15.1207C24.9986 15.1207 21.3036 18.8144 21.3036 23.3544C21.3036 23.5769 21.3198 23.7969 21.3411 24.0144C21.3524 24.1794 21.2911 24.3432 21.1724 24.4582C21.0561 24.5744 20.8899 24.6294 20.7249 24.6144C20.5624 24.5956 20.3949 24.5844 20.2236 24.5844C17.7224 24.5844 15.6849 26.6232 15.6849 29.1244C15.6849 31.6282 17.7224 33.6657 20.2236 33.6657V33.6654ZM20.1948 23.4744V23.3544C20.1948 18.2019 24.3861 14.0094 29.5373 14.0094C33.9698 14.0094 37.7148 17.0519 38.6511 21.3257C39.0098 21.2669 39.3623 21.2382 39.7086 21.2382C43.4398 21.2382 46.4786 24.2744 46.4786 28.0069C46.4786 31.7407 43.4398 34.7769 39.7086 34.7769H39.7036H34.6561H20.2236C17.1098 34.7769 14.5748 32.2407 14.5748 29.1244C14.5748 26.0194 17.0936 23.4906 20.1948 23.4744Z" fill="#357491"/>
<path d="M9.16528 17.8658C9.16528 12.917 13.1928 8.8895 18.1415 8.8895C21.1678 8.8895 23.7865 10.1857 25.454 12.7132C25.6228 12.9695 25.5527 13.3145 25.2965 13.482C25.0403 13.652 24.6978 13.5833 24.5266 13.3258C23.0653 11.1108 20.7928 10.0008 18.1415 10.0008C13.8053 10.0008 10.2778 13.5283 10.2778 17.8658C10.2778 20.5483 11.6253 23.0207 13.8815 24.4782C14.1403 24.6445 14.2165 24.987 14.0478 25.2458C13.9415 25.4108 13.7665 25.5008 13.5828 25.5008C13.479 25.5008 13.3728 25.472 13.2828 25.412C10.7041 23.7495 9.16528 20.9294 9.16528 17.8657" fill="#357491"/>
<path d="M18.0226 6.14212C17.7176 6.14212 17.4663 5.8921 17.4663 5.58585V1.14835C17.4663 0.842096 17.7176 0.594635 18.0226 0.594635C18.3301 0.594635 18.5776 0.842096 18.5776 1.14835V5.58585C18.5776 5.8921 18.3301 6.14212 18.0226 6.14212Z" fill="#357491"/>
<path d="M11.9459 7.86998C11.8546 7.92748 11.7547 7.95378 11.6559 7.95378C11.4697 7.95378 11.2859 7.86133 11.1809 7.69133L8.84594 3.91753C8.68469 3.65753 8.76463 3.31504 9.02593 3.15379C9.28718 2.99129 9.62844 3.07261 9.79094 3.33256L12.1272 7.10631C12.2859 7.36756 12.2072 7.71004 11.9459 7.87004" fill="#357491"/>
<path d="M7.35253 10.5441C7.26503 10.5441 7.17376 10.5229 7.09126 10.478L3.17626 8.38293C2.90501 8.23668 2.80378 7.90043 2.95003 7.63043C3.09378 7.36043 3.43003 7.2592 3.70128 7.40295L7.61376 9.4992C7.88626 9.6442 7.98877 9.98045 7.84502 10.2517C7.74252 10.438 7.54878 10.5442 7.35253 10.5442" fill="#357491"/>
<path d="M1.47983 17.0991H1.48181L5.92056 17.1116C6.22806 17.1126 6.47556 17.3616 6.47556 17.6691C6.47356 17.9753 6.22556 18.2229 5.92056 18.2229H5.91855L1.47983 18.2092C1.17233 18.2082 0.924805 17.9579 0.924805 17.6516C0.926805 17.3454 1.17483 17.0992 1.47983 17.0992" fill="#357491"/>
<path d="M3.23136 25.1333L7.1276 23.0032C7.39635 22.8557 7.73635 22.9545 7.88385 23.2232C8.0301 23.4932 7.93005 23.8307 7.66385 23.9782L3.76386 26.107C3.68006 26.1545 3.58759 26.1758 3.49759 26.1758C3.30384 26.1758 3.10885 26.072 3.0076 25.887C2.86385 25.617 2.96131 25.2795 3.23136 25.1333Z" fill="#357491"/>
<path d="M32.8138 10.2309L28.9151 12.3609C28.8288 12.4072 28.7389 12.4284 28.6489 12.4284C28.4526 12.4284 28.2626 12.3234 28.1614 12.1396C28.0151 11.8709 28.1126 11.5321 28.3839 11.3846L32.2788 9.25589C32.5476 9.10839 32.8876 9.20706 33.0338 9.47586C33.1813 9.74461 33.0838 10.0821 32.8138 10.2309Z" fill="#357491"/>
<path d="M11.1307 27.657C11.2945 27.3958 11.6345 27.317 11.8957 27.4795C12.1545 27.642 12.2357 27.9845 12.0719 28.247L9.71696 32.012C9.61321 32.1795 9.42946 32.2732 9.24571 32.2732C9.14821 32.2732 9.04445 32.2445 8.95445 32.1883C8.6932 32.0258 8.61196 31.682 8.77446 31.4233L11.1307 27.657Z" fill="#357491"/>
<path d="M24.9112 7.70823C24.8087 7.87573 24.6262 7.96824 24.4412 7.96824C24.3399 7.96824 24.2399 7.94192 24.1487 7.88572C23.8887 7.72072 23.8099 7.37826 23.9699 7.11826L26.3287 3.35325C26.4899 3.09325 26.8299 3.01323 27.0937 3.17698C27.3524 3.33823 27.4312 3.68199 27.27 3.94199L24.9112 7.70823Z" fill="#357491"/>
</svg>
