<svg width="50" height="38" viewBox="0 0 50 38" fill="none" xmlns="http://www.w3.org/2000/svg">
<path d="M20.9337 35.8687L41.6499 35.8677C41.7874 35.8677 41.9312 35.8676 42.0649 35.8826V35.869C45.4487 35.869 48.2012 33.1165 48.2012 29.7327C48.2012 26.349 45.4487 23.5964 42.0649 23.5964C41.5874 23.5964 41.0899 23.6578 40.5849 23.7827C40.4212 23.8227 40.2475 23.7939 40.1062 23.6989C39.9662 23.6052 39.8712 23.4577 39.8449 23.2902C39.1599 18.9239 35.4537 15.7539 31.0349 15.7539C26.1112 15.7539 22.1049 19.7601 22.1049 24.6851C22.1049 24.9264 22.1224 25.1651 22.1411 25.4026C22.1561 25.5814 22.0912 25.7576 21.9624 25.8826C21.8337 26.0076 21.6562 26.0676 21.4774 26.0514C21.2987 26.0326 21.1186 26.0201 20.9336 26.0201C18.2199 26.0201 16.0111 28.2301 16.0111 30.9438C16.0111 33.6588 18.2199 35.8688 20.9336 35.8688L20.9337 35.8687ZM20.9011 24.8151C20.9011 24.7726 20.9001 24.7288 20.9001 24.6851C20.9001 19.0964 25.4464 14.5488 31.0351 14.5488C35.8401 14.5488 39.9014 17.8514 40.9189 22.4851C41.3076 22.4214 41.6901 22.3914 42.0651 22.3914C46.1139 22.3914 49.4064 25.6839 49.4064 29.7327C49.4064 33.7802 46.1139 37.0739 42.0651 37.0739H42.0591C41.9691 37.0729 39.6529 37.0729 36.5866 37.0729L20.9341 37.0739C17.5554 37.0739 14.8066 34.3239 14.8066 30.9439C14.8066 27.5752 17.5366 24.8339 20.9016 24.8151" fill="#357491"/>
<path d="M8.9397 18.7311C8.9397 13.3636 13.3072 8.99738 18.6734 8.99738C21.9559 8.99738 24.7972 10.4024 26.6059 13.1437C26.7884 13.4224 26.7122 13.7961 26.4347 13.9786C26.1559 14.1636 25.7822 14.0862 25.5997 13.8087C24.0147 11.4062 21.5484 10.2024 18.6734 10.2024C13.9709 10.2024 10.1447 14.0274 10.1447 18.7311C10.1447 21.6424 11.6072 24.3249 14.0559 25.9036C14.3347 26.0849 14.4159 26.4574 14.2347 26.7361C14.1209 26.9161 13.9272 27.0124 13.7297 27.0124C13.6172 27.0124 13.5034 26.9824 13.4022 26.9162C10.6084 25.1137 8.9397 22.0537 8.9397 18.7312" fill="#357491"/>
<path d="M18.5452 6.0163C18.2115 6.0163 17.9427 5.74754 17.9427 5.41504V0.601257C17.9427 0.268757 18.2115 0 18.5452 0C18.8777 0 19.1478 0.268757 19.1478 0.601257V5.41504C19.1478 5.74754 18.8777 6.0163 18.5452 6.0163Z" fill="#357491"/>
<path d="M11.9542 7.89249C11.8555 7.95379 11.7467 7.98252 11.6379 7.98252C11.4367 7.98252 11.2392 7.88123 11.1242 7.69748L8.59169 3.60502C8.41794 3.32252 8.5042 2.95125 8.7867 2.775C9.07045 2.60125 9.44044 2.68748 9.61669 2.97123L12.1492 7.06247C12.3254 7.34622 12.2379 7.71624 11.9542 7.89249Z" fill="#357491"/>
<path d="M6.97245 12.9608C6.87745 12.9608 6.77994 12.9371 6.68869 12.8896L2.4437 10.6158C2.14995 10.4596 2.0387 10.0946 2.1962 9.80081C2.35245 9.50706 2.71744 9.39582 3.01244 9.55332L7.25745 11.8271C7.5512 11.9846 7.66245 12.3496 7.5037 12.6421C7.3962 12.8458 7.18745 12.9608 6.97245 12.9608Z" fill="#357491"/>
<path d="M0.602753 17.901H0.604752L5.41975 17.9149C5.7535 17.9149 6.02225 18.1861 6.021 18.5186C6.02 18.8511 5.751 19.1198 5.4185 19.1198H5.4175L0.602493 19.1061C0.268743 19.1051 0 18.8336 0 18.4999C0.001 18.1686 0.269993 17.9011 0.602493 17.9011" fill="#357491"/>
<path d="M2.50229 26.6144L6.7298 24.3032C7.0223 24.1444 7.38855 24.2506 7.5473 24.5444C7.7073 24.8356 7.5998 25.2019 7.3073 25.3607L3.07979 27.6719C2.98859 27.7219 2.8898 27.7444 2.79105 27.7444C2.5798 27.7444 2.3723 27.6319 2.2623 27.4307C2.10355 27.1394 2.21109 26.7731 2.50229 26.6144Z" fill="#357491"/>
<path d="M34.5866 10.4512L30.3591 12.7612C30.2666 12.8125 30.1678 12.8349 30.0703 12.8349C29.8578 12.8349 29.6503 12.7212 29.5416 12.5212C29.3816 12.2299 29.4891 11.8637 29.7816 11.7049L34.0091 9.39366C34.3016 9.23366 34.6665 9.34121 34.8265 9.63371C34.9853 9.92496 34.8791 10.2912 34.5866 10.4512Z" fill="#357491"/>
<path d="M11.0703 29.3513C11.2478 29.0688 11.6178 28.9825 11.9015 29.1612C12.1828 29.3362 12.2678 29.7087 12.0915 29.99L9.53779 34.075C9.42404 34.2575 9.22655 34.3588 9.02655 34.3588C8.91655 34.3588 8.80654 34.3274 8.70779 34.2674C8.42529 34.09 8.33904 33.7175 8.51654 33.4362L11.0703 29.3512V29.3513Z" fill="#357491"/>
<path d="M26.0184 7.71552C25.9047 7.89802 25.7072 7.99927 25.5072 7.99927C25.3984 7.99927 25.2884 7.96931 25.1884 7.90681C24.9059 7.73056 24.8209 7.35926 24.9972 7.07551L27.5522 2.99177C27.7284 2.70927 28.0997 2.62304 28.3822 2.80054C28.6634 2.97679 28.7497 3.34806 28.5722 3.63056L26.0184 7.71552Z" fill="#357491"/>
</svg>
