<svg width="44" height="45" viewBox="0 0 44 45" fill="none" xmlns="http://www.w3.org/2000/svg">
<path d="M22.2058 32.573C16.7271 32.573 12.2708 28.1155 12.2708 22.6367C12.2708 17.1592 16.7271 12.7018 22.2058 12.7018C27.6846 12.7018 32.1408 17.1592 32.1408 22.6367C32.1408 28.1155 27.6846 32.573 22.2058 32.573ZM22.2058 11.298C15.9533 11.298 10.8671 16.3842 10.8671 22.6367C10.8671 28.8892 15.9533 33.9768 22.2058 33.9768C28.4571 33.9768 33.5446 28.8892 33.5446 22.6367C33.5446 16.3842 28.4571 11.298 22.2058 11.298Z" fill="#357491"/>
<path d="M22.2058 7.97403C22.5933 7.97403 22.907 7.66026 22.907 7.27151V1.66647C22.907 1.27897 22.5933 0.96524 22.2058 0.96524C21.8183 0.96524 21.5033 1.27897 21.5033 1.66647V7.27151C21.5033 7.66026 21.8183 7.97403 22.2058 7.97403Z" fill="#357491"/>
<path d="M22.2058 37.1391C21.8183 37.1391 21.5033 37.4529 21.5033 37.8416V43.4466C21.5033 43.8341 21.8183 44.1479 22.2058 44.1479C22.5933 44.1479 22.907 43.8341 22.907 43.4466V37.8416C22.907 37.4529 22.5933 37.1391 22.2058 37.1391Z" fill="#357491"/>
<path d="M29.8834 10.1585C29.9984 10.2298 30.1259 10.2635 30.2522 10.2635C30.4872 10.2635 30.7171 10.146 30.8496 9.93102L33.8009 5.16479C34.0034 4.83479 33.9022 4.40354 33.5734 4.19854C33.2434 3.99479 32.8109 4.09602 32.6071 4.42602L29.6559 9.19354C29.4522 9.52229 29.5534 9.95475 29.8834 10.1585Z" fill="#357491"/>
<path d="M14.5288 34.9546C14.2 34.7509 13.7663 34.8521 13.5625 35.1821L10.6113 39.9484C10.4075 40.2784 10.51 40.7097 10.8388 40.9147C10.955 40.9859 11.0813 41.0196 11.2075 41.0196C11.4425 41.0196 11.6725 40.9021 11.805 40.6871L14.7563 35.9197C14.96 35.5909 14.8575 35.1584 14.5288 34.9546Z" fill="#357491"/>
<path d="M35.6861 16.0619C35.7986 16.0619 35.9111 16.0357 36.0174 15.9794L40.9624 13.3306C41.3049 13.1481 41.4336 12.7232 41.2499 12.3807C41.0674 12.0407 40.6424 11.9107 40.2999 12.0944L35.3549 14.7419C35.0124 14.9244 34.8836 15.3506 35.0674 15.6919C35.1936 15.9281 35.4361 16.0619 35.6861 16.0619Z" fill="#357491"/>
<path d="M8.38495 29.1789L3.43745 31.8264C3.0962 32.0102 2.96745 32.4339 3.14995 32.7764C3.27745 33.0127 3.5187 33.1476 3.76995 33.1476C3.8812 33.1476 3.9937 33.1201 4.09995 33.0638L9.0462 30.4163C9.3887 30.2326 9.51745 29.8076 9.33495 29.4651C9.1512 29.1251 8.72745 28.9963 8.38495 29.1788" fill="#357491"/>
<path d="M43.1073 21.8163H43.1053L37.4953 21.8324C37.1078 21.8334 36.794 22.1487 36.7953 22.5362C36.7963 22.9224 37.1103 23.2362 37.4965 23.2362H37.4985L43.1085 23.22C43.496 23.219 43.8098 22.9038 43.8086 22.5163C43.8076 22.1288 43.4935 21.8163 43.1073 21.8163Z" fill="#357491"/>
<path d="M7.60859 22.6189C7.60759 22.2314 7.29359 21.9189 6.90609 21.9189H6.90509L1.29509 21.9352C0.906343 21.9362 0.593847 22.2514 0.595097 22.6389C0.596097 23.0264 0.910095 23.3389 1.29634 23.3389H1.29834L6.90834 23.3226C7.29584 23.3216 7.60834 23.0064 7.60834 22.6189" fill="#357491"/>
<path d="M40.8942 31.9664L35.9692 29.2751C35.6292 29.0889 35.2029 29.2138 35.0167 29.5539C34.8317 29.8939 34.9567 30.3214 35.2967 30.5064L40.2204 33.1964C40.3279 33.2564 40.4429 33.2839 40.5567 33.2839C40.8042 33.2839 41.0467 33.1514 41.1729 32.9189C41.3592 32.5776 41.2329 32.1514 40.8942 31.9664Z" fill="#357491"/>
<path d="M9.11814 14.5987L4.1944 11.9075C3.8544 11.7213 3.42689 11.8462 3.24189 12.1863C3.05564 12.5263 3.1806 12.9538 3.52065 13.1388L8.4444 15.83C8.5519 15.8888 8.6669 15.9163 8.78065 15.9163C9.0294 15.9163 9.27064 15.7838 9.39814 15.5513C9.58314 15.2113 9.45814 14.7838 9.11814 14.5988" fill="#357491"/>
<path d="M30.913 35.1542C30.708 34.8267 30.2755 34.7255 29.9468 34.9317C29.618 35.1367 29.518 35.5705 29.7243 35.898L32.698 40.6567C32.8305 40.8692 33.0593 40.9855 33.293 40.9855C33.4205 40.9855 33.548 40.9518 33.6643 40.8792C33.993 40.6742 34.093 40.2405 33.888 39.9118L30.913 35.1542Z" fill="#357491"/>
<path d="M13.501 9.95223C13.6335 10.1647 13.8635 10.2823 14.096 10.2823C14.2235 10.2823 14.3522 10.2472 14.4672 10.176C14.796 9.96974 14.896 9.53602 14.691 9.20852L11.716 4.44973C11.511 4.12223 11.0785 4.02101 10.7485 4.22726C10.4197 4.43226 10.321 4.86601 10.526 5.19351L13.501 9.95223Z" fill="#357491"/>
</svg>
